<svg width="131" height="98" viewBox="0 0 131 98" fill="none" xmlns="http://www.w3.org/2000/svg">
<g clip-path="url(#clip0)" filter="url(#filter0_d)">
<path d="M96.525 17.3H34.475C33.0229 17.3 31.6304 17.7979 30.6036 18.684C29.5768 19.5701 29 20.7719 29 22.025V53.525C29 54.7782 29.5768 55.98 30.6036 56.8661C31.6304 57.7522 33.0229 58.25 34.475 58.25H61.85V61.4H41.775C41.291 61.4 40.8268 61.566 40.4845 61.8614C40.1423 62.1567 39.95 62.5573 39.95 62.975V66.125C39.95 66.5428 40.1423 66.9434 40.4845 67.2387C40.8268 67.5341 41.291 67.7 41.775 67.7H89.225C89.709 67.7 90.1732 67.5341 90.5155 67.2387C90.8577 66.9434 91.05 66.5428 91.05 66.125V62.975C91.05 62.5573 90.8577 62.1567 90.5155 61.8614C90.1732 61.566 89.709 61.4 89.225 61.4H69.15V58.25H96.525C97.9771 58.25 99.3696 57.7522 100.396 56.8661C101.423 55.98 102 54.7782 102 53.525V22.025C102 20.7719 101.423 19.5701 100.396 18.684C99.3696 17.7979 97.9771 17.3 96.525 17.3V17.3ZM94.7 51.95H36.3V23.6H94.7V51.95Z" fill="white"/>
</g>
<g clip-path="url(#clip1)">
<path d="M116.264 30.9001L115.922 30.7405L114.878 32.9794C114.533 33.7182 114.02 34.215 113.738 34.0833L112.027 33.2853C111.744 33.1537 111.795 32.4414 112.14 31.7026L113.184 29.4637L99.4933 23.0797L98.4493 25.3187C98.1048 26.0575 97.5919 26.5543 97.3095 26.4226L95.5982 25.6246C95.3159 25.493 95.3667 24.7807 95.7112 24.0419L96.7553 21.8029L96.413 21.6433C95.844 21.378 94.8277 22.3624 94.1334 23.8513L76.5937 61.4652C75.8995 62.9541 75.7987 64.3654 76.3677 64.6307L76.7099 64.7903L77.754 62.5514C78.0985 61.8125 78.6114 61.3157 78.8938 61.4474L80.6051 62.2454C80.8874 62.3771 80.8366 63.0893 80.492 63.8282L79.448 66.0671L93.1384 72.451L94.1824 70.2121C94.527 69.4733 95.0399 68.9765 95.3222 69.1081L97.0335 69.9061C97.3159 70.0378 97.265 70.75 96.9205 71.4889L95.8765 73.7278L96.2188 73.8874C96.7878 74.1527 97.8041 73.1684 98.4984 71.6795L116.038 34.0656C116.732 32.5767 116.833 31.1654 116.264 30.9001ZM83.4153 57.5592C83.0708 58.298 82.5579 58.7948 82.2755 58.6631L80.5642 57.8651C80.2819 57.7335 80.3327 57.0212 80.6772 56.2824L82.7653 51.8045C83.1098 51.0657 83.6227 50.5689 83.9051 50.7006L85.6164 51.4986C85.8988 51.6302 85.8479 52.3425 85.5034 53.0813L83.4153 57.5592ZM88.4267 46.8123C88.0821 47.5512 87.5692 48.048 87.2868 47.9163L85.5755 47.1183C85.2932 46.9866 85.344 46.2744 85.6886 45.5355L87.7766 41.0577C88.1212 40.3189 88.6341 39.8221 88.9164 39.9537L90.6277 40.7517C90.9101 40.8834 90.8592 41.5956 90.5147 42.3345L88.4267 46.8123ZM93.438 36.0655C93.0935 36.8043 92.5805 37.3011 92.2982 37.1695L90.5869 36.3715C90.3045 36.2398 90.3554 35.5276 90.6999 34.7887L92.788 30.3109C93.1325 29.572 93.6454 29.0752 93.9278 29.2069L95.6391 30.0049C95.9214 30.1366 95.8706 30.8488 95.526 31.5876L93.438 36.0655ZM94.2169 64.7767C93.8724 65.5155 93.3595 66.0123 93.0771 65.8806L84.5206 61.8907C84.2383 61.759 84.2891 61.0467 84.6337 60.3079L89.645 49.5611C89.9895 48.8222 90.5024 48.3254 90.7848 48.4571L99.3413 52.4471C99.6237 52.5787 99.5728 53.291 99.2283 54.0298L94.2169 64.7767ZM102.987 45.9697C102.642 46.7085 102.129 47.2053 101.847 47.0736L93.2905 43.0837C93.0081 42.952 93.059 42.2398 93.4035 41.5009L98.4148 30.7541C98.7594 30.0153 99.2723 29.5185 99.5546 29.6501L108.111 33.6401C108.393 33.7718 108.343 34.484 107.998 35.2229L102.987 45.9697ZM99.8438 65.2199C99.4993 65.9587 98.9864 66.4555 98.704 66.3239L96.9927 65.5259C96.7103 65.3942 96.7612 64.682 97.1057 63.9431L99.1938 59.4653C99.5383 58.7264 100.051 58.2296 100.334 58.3613L102.045 59.1593C102.327 59.291 102.276 60.0032 101.932 60.742L99.8438 65.2199ZM104.855 54.4731C104.511 55.2119 103.998 55.7087 103.715 55.577L102.004 54.779C101.722 54.6474 101.773 53.9351 102.117 53.1963L104.205 48.7184C104.55 47.9796 105.063 47.4828 105.345 47.6145L107.056 48.4125C107.339 48.5441 107.288 49.2564 106.943 49.9952L104.855 54.4731ZM109.866 43.7262C109.522 44.4651 109.009 44.9618 108.727 44.8302L107.015 44.0322C106.733 43.9005 106.784 43.1883 107.128 42.4494L109.216 37.9716C109.561 37.2327 110.074 36.736 110.356 36.8676L112.068 37.6656C112.35 37.7973 112.299 38.5095 111.955 39.2484L109.866 43.7262Z" fill="#6F6D63"/>
</g>
<path d="M24.702 64.912V64.066H33.774L33.9 67.216H32.64L32.262 65.02H28.608C28.596 65.776 28.584 66.532 28.572 67.288C28.572 68.032 28.572 68.734 28.572 69.394H30.894L31.128 67.828H32.064V71.896H31.128L30.912 70.348H28.572C28.572 71.212 28.572 72.028 28.572 72.796C28.584 73.552 28.596 74.302 28.608 75.046H32.622L33 72.85H34.26L34.134 76H24.702V75.154L26.214 74.992C26.238 74.248 26.25 73.492 26.25 72.724C26.25 71.956 26.25 71.188 26.25 70.42V69.646C26.25 68.89 26.25 68.134 26.25 67.378C26.25 66.61 26.238 65.842 26.214 65.074L24.702 64.912ZM35.4774 64.912V64.066H44.5494L44.6754 67.216H43.4154L43.0374 65.02H39.3834C39.3714 65.776 39.3594 66.532 39.3474 67.288C39.3474 68.032 39.3474 68.734 39.3474 69.394H41.6694L41.9034 67.828H42.8394V71.896H41.9034L41.6874 70.348H39.3474C39.3474 71.212 39.3474 72.028 39.3474 72.796C39.3594 73.552 39.3714 74.302 39.3834 75.046H43.3974L43.7754 72.85H45.0354L44.9094 76H35.4774V75.154L36.9894 74.992C37.0134 74.248 37.0254 73.492 37.0254 72.724C37.0254 71.956 37.0254 71.188 37.0254 70.42V69.646C37.0254 68.89 37.0254 68.134 37.0254 67.378C37.0254 66.61 37.0134 65.842 36.9894 65.074L35.4774 64.912ZM52.3217 76.306C51.1457 76.306 50.0897 76.06 49.1537 75.568C48.2297 75.064 47.4977 74.344 46.9577 73.408C46.4297 72.46 46.1657 71.332 46.1657 70.024C46.1657 68.716 46.4417 67.594 46.9937 66.658C47.5577 65.722 48.3077 65.008 49.2437 64.516C50.1917 64.012 51.2357 63.76 52.3757 63.76C52.9637 63.76 53.5517 63.826 54.1397 63.958C54.7277 64.09 55.3097 64.318 55.8857 64.642L55.9577 67.342H54.7157L54.2837 65.11C54.0197 64.966 53.7557 64.864 53.4917 64.804C53.2277 64.744 52.9637 64.714 52.6997 64.714C51.9797 64.714 51.3137 64.912 50.7017 65.308C50.1017 65.692 49.6157 66.28 49.2437 67.072C48.8837 67.852 48.7037 68.842 48.7037 70.042C48.7037 71.23 48.8717 72.22 49.2077 73.012C49.5557 73.792 50.0237 74.374 50.6117 74.758C51.1997 75.142 51.8597 75.334 52.5917 75.334C53.2037 75.334 53.8217 75.196 54.4457 74.92L54.8777 72.724H56.1017L56.0297 75.406C55.5137 75.694 54.9437 75.916 54.3197 76.072C53.6957 76.228 53.0297 76.306 52.3217 76.306ZM57.2889 76V75.262L58.4769 75.028C58.4889 74.584 58.4949 74.104 58.4949 73.588C58.4949 73.06 58.4949 72.604 58.4949 72.22V71.374C58.4949 70.882 58.4889 70.474 58.4769 70.15C58.4769 69.814 58.4649 69.466 58.4409 69.106L57.1629 68.944V68.26L60.4029 67.126L60.6909 67.306L60.6369 69.844V72.22C60.6369 72.604 60.6369 73.06 60.6369 73.588C60.6369 74.104 60.6429 74.59 60.6549 75.046L61.7529 75.262V76H57.2889ZM59.5569 65.452C59.1729 65.452 58.8489 65.332 58.5849 65.092C58.3209 64.852 58.1889 64.546 58.1889 64.174C58.1889 63.79 58.3209 63.478 58.5849 63.238C58.8489 62.998 59.1729 62.878 59.5569 62.878C59.9409 62.878 60.2589 62.998 60.5109 63.238C60.7749 63.478 60.9069 63.79 60.9069 64.174C60.9069 64.546 60.7749 64.852 60.5109 65.092C60.2589 65.332 59.9409 65.452 59.5569 65.452ZM62.8444 76V75.262L64.0144 75.028C64.0264 74.584 64.0324 74.104 64.0324 73.588C64.0324 73.06 64.0324 72.604 64.0324 72.22V71.266C64.0324 70.774 64.0264 70.384 64.0144 70.096C64.0144 69.796 64.0024 69.466 63.9784 69.106L62.7184 68.944V68.26L65.7244 67.126L66.0124 67.306L66.1384 68.692C67.0624 67.648 68.0824 67.126 69.1984 67.126C69.9784 67.126 70.5784 67.384 70.9984 67.9C71.4304 68.416 71.6464 69.232 71.6464 70.348V72.22C71.6464 72.628 71.6464 73.09 71.6464 73.606C71.6464 74.122 71.6524 74.602 71.6644 75.046L72.7624 75.262V76H68.3164V75.262L69.4684 75.028C69.4804 74.584 69.4864 74.11 69.4864 73.606C69.4864 73.09 69.4864 72.628 69.4864 72.22V70.51C69.4864 69.802 69.3904 69.316 69.1984 69.052C69.0064 68.776 68.6824 68.638 68.2264 68.638C67.5904 68.638 66.9184 68.932 66.2104 69.52V72.22C66.2104 72.616 66.2104 73.072 66.2104 73.588C66.2104 74.104 66.2164 74.59 66.2284 75.046L67.2904 75.262V76H62.8444ZM78.1503 67.99C77.8623 67.99 77.5743 68.086 77.2863 68.278C77.0103 68.458 76.7703 68.758 76.5663 69.178C76.3743 69.598 76.2543 70.168 76.2063 70.888H78.6723C79.1043 70.888 79.3923 70.798 79.5363 70.618C79.6803 70.438 79.7523 70.186 79.7523 69.862C79.7523 69.31 79.5963 68.86 79.2843 68.512C78.9723 68.164 78.5943 67.99 78.1503 67.99ZM78.1503 76.252C77.3103 76.252 76.5723 76.072 75.9363 75.712C75.3003 75.352 74.8023 74.836 74.4423 74.164C74.0823 73.48 73.9023 72.67 73.9023 71.734C73.9023 70.774 74.1063 69.952 74.5143 69.268C74.9343 68.572 75.4743 68.044 76.1343 67.684C76.8063 67.312 77.5203 67.126 78.2763 67.126C78.9843 67.126 79.6023 67.276 80.1303 67.576C80.6583 67.876 81.0663 68.296 81.3543 68.836C81.6543 69.376 81.8043 70.012 81.8043 70.744C81.8043 71.128 81.7683 71.458 81.6963 71.734H76.1883C76.2363 72.766 76.5063 73.54 76.9983 74.056C77.5023 74.572 78.1323 74.83 78.8883 74.83C79.4163 74.83 79.8603 74.728 80.2203 74.524C80.5923 74.308 80.9283 74.032 81.2283 73.696L81.7503 74.164C81.4023 74.824 80.9223 75.34 80.3103 75.712C79.7103 76.072 78.9903 76.252 78.1503 76.252ZM83.112 76V75.262L84.282 75.028C84.294 74.584 84.3 74.104 84.3 73.588C84.3 73.06 84.3 72.604 84.3 72.22V71.266C84.3 70.774 84.294 70.384 84.282 70.096C84.282 69.796 84.27 69.466 84.246 69.106L82.986 68.944V68.26L85.992 67.126L86.28 67.306L86.406 68.71C86.838 68.218 87.306 67.834 87.81 67.558C88.326 67.27 88.86 67.126 89.412 67.126C90.576 67.126 91.326 67.672 91.662 68.764C92.142 68.188 92.64 67.774 93.156 67.522C93.672 67.258 94.206 67.126 94.758 67.126C95.574 67.126 96.186 67.378 96.594 67.882C97.002 68.386 97.206 69.19 97.206 70.294V72.22C97.206 72.628 97.206 73.09 97.206 73.606C97.206 74.11 97.212 74.59 97.224 75.046L98.322 75.262V76H93.93V75.262L95.046 75.028C95.058 74.584 95.064 74.11 95.064 73.606C95.064 73.09 95.064 72.628 95.064 72.22V70.564C95.064 69.808 94.962 69.298 94.758 69.034C94.566 68.77 94.242 68.638 93.786 68.638C93.15 68.638 92.49 68.944 91.806 69.556C91.818 69.676 91.824 69.802 91.824 69.934C91.836 70.066 91.842 70.204 91.842 70.348V72.22C91.842 72.628 91.842 73.09 91.842 73.606C91.842 74.11 91.848 74.59 91.86 75.046L92.94 75.262V76H88.53V75.262L89.682 75.028C89.694 74.584 89.7 74.11 89.7 73.606C89.7 73.09 89.7 72.628 89.7 72.22V70.6C89.7 69.868 89.604 69.358 89.412 69.07C89.232 68.782 88.908 68.638 88.44 68.638C88.104 68.638 87.768 68.722 87.432 68.89C87.108 69.046 86.79 69.262 86.478 69.538V72.22C86.478 72.616 86.478 73.072 86.478 73.588C86.478 74.104 86.484 74.59 86.496 75.046L87.558 75.262V76H83.112ZM106.177 76.216C105.697 76.216 105.307 76.096 105.007 75.856C104.707 75.616 104.503 75.286 104.395 74.866C103.951 75.322 103.549 75.67 103.189 75.91C102.829 76.138 102.361 76.252 101.785 76.252C101.113 76.252 100.543 76.06 100.075 75.676C99.619 75.28 99.391 74.716 99.391 73.984C99.391 73.6 99.481 73.246 99.661 72.922C99.841 72.586 100.159 72.274 100.615 71.986C101.083 71.698 101.749 71.416 102.613 71.14C102.853 71.056 103.123 70.972 103.423 70.888C103.723 70.804 104.029 70.72 104.341 70.636V70.132C104.341 69.292 104.221 68.728 103.981 68.44C103.753 68.14 103.345 67.99 102.757 67.99C102.649 67.99 102.529 67.996 102.397 68.008C102.277 68.02 102.151 68.038 102.019 68.062L101.803 69.052C101.755 69.484 101.629 69.802 101.425 70.006C101.221 70.21 100.969 70.312 100.669 70.312C100.093 70.312 99.757 70.042 99.661 69.502C99.769 68.782 100.153 68.206 100.813 67.774C101.485 67.342 102.367 67.126 103.459 67.126C104.503 67.126 105.265 67.378 105.745 67.882C106.225 68.374 106.465 69.208 106.465 70.384V74.308C106.465 74.848 106.639 75.118 106.987 75.118C107.215 75.118 107.425 74.986 107.617 74.722L108.031 75.082C107.815 75.49 107.557 75.784 107.257 75.964C106.969 76.132 106.609 76.216 106.177 76.216ZM101.497 73.606C101.497 74.074 101.617 74.416 101.857 74.632C102.109 74.836 102.415 74.938 102.775 74.938C102.979 74.938 103.183 74.89 103.387 74.794C103.591 74.698 103.909 74.5 104.341 74.2V71.356C104.089 71.44 103.849 71.518 103.621 71.59C103.405 71.662 103.219 71.728 103.063 71.788C102.463 72.028 102.049 72.304 101.821 72.616C101.605 72.928 101.497 73.258 101.497 73.606Z" fill="url(#paint0_linear)"/>
<defs>
<filter id="filter0_d" x="19" y="5" width="93" height="83" filterUnits="userSpaceOnUse" color-interpolation-filters="sRGB">
<feFlood flood-opacity="0" result="BackgroundImageFix"/>
<feColorMatrix in="SourceAlpha" type="matrix" values="0 0 0 0 0 0 0 0 0 0 0 0 0 0 0 0 0 0 127 0" result="hardAlpha"/>
<feOffset dy="4"/>
<feGaussianBlur stdDeviation="5"/>
<feComposite in2="hardAlpha" operator="out"/>
<feColorMatrix type="matrix" values="0 0 0 0 1 0 0 0 0 1 0 0 0 0 1 0 0 0 0.25 0"/>
<feBlend mode="normal" in2="BackgroundImageFix" result="effect1_dropShadow"/>
<feBlend mode="normal" in="SourceGraphic" in2="effect1_dropShadow" result="shape"/>
</filter>
<linearGradient id="paint0_linear" x1="66.5" y1="59" x2="66.5" y2="82" gradientUnits="userSpaceOnUse">
<stop offset="0.557292" stop-color="#F3CC00"/>
<stop offset="1" stop-color="#1D1D1D" stop-opacity="0"/>
</linearGradient>
<clipPath id="clip0">
<rect width="73" height="63" fill="white" transform="translate(29 11)"/>
</clipPath>
<clipPath id="clip1">
<rect width="24.1691" height="63.2417" fill="white" transform="translate(98.7271 14) rotate(25)"/>
</clipPath>
</defs>
</svg>
